<svg width="76" height="76" viewBox="0 0 76 76" fill="none" xmlns="http://www.w3.org/2000/svg">
<g clip-path="url(#clip0)">
<path d="M29.787 52.8473C29.5033 52.8473 29.2175 52.7498 28.9842 52.5513L20.9596 45.7215C20.6828 45.4857 20.5237 45.1412 20.5237 44.7774C20.5237 44.4143 20.6835 44.0698 20.9596 43.8339L28.9842 37.0042C29.5053 36.5602 30.288 36.6231 30.7323 37.1439C31.1759 37.6655 31.1136 38.4478 30.5918 38.8911L23.6765 44.7774L30.5918 50.6637C31.1136 51.1077 31.1759 51.89 30.7323 52.4109C30.4866 52.6993 30.1378 52.8473 29.787 52.8473Z" fill="#001AFF"/>
<path d="M45.6286 52.8473C45.2777 52.8473 44.929 52.6993 44.684 52.4109C44.2397 51.89 44.3027 51.1077 44.8238 50.6637L51.7391 44.7774L44.8238 38.8911C44.3027 38.4478 44.2397 37.6655 44.684 37.1439C45.1276 36.6231 45.9109 36.5602 46.4313 37.0042L54.4559 43.8339C54.7328 44.0698 54.8919 44.4143 54.8919 44.7774C54.8919 45.1412 54.7328 45.4857 54.4559 45.7215L46.4313 52.5513C46.1981 52.7498 45.9123 52.8473 45.6286 52.8473Z" fill="#001AFF"/>
<path d="M34.867 57.97C34.7819 57.97 34.6961 57.961 34.6096 57.943C33.9397 57.8019 33.5107 57.1441 33.6519 56.4746L38.6531 32.7407C38.7942 32.0712 39.4516 31.6423 40.1222 31.7835C40.7921 31.9246 41.2211 32.5817 41.08 33.2519L36.0788 56.9857C35.9556 57.5695 35.4407 57.97 34.867 57.97Z" fill="#001AFF"/>
<path d="M66.9385 70.9002H8.47702C3.88619 70.9002 0.150688 67.1672 0.150688 62.5779V12.9825C0.150688 8.39388 3.88619 4.66016 8.47702 4.66016H66.9385C71.5293 4.66016 75.2648 8.39388 75.2648 12.9825V62.5779C75.2648 67.1672 71.5293 70.9002 66.9385 70.9002ZM8.47702 7.13916C5.25361 7.13916 2.63087 9.76065 2.63087 12.9825V62.5779C2.63087 65.7997 5.25361 68.4212 8.47702 68.4212H66.9385C70.1619 68.4212 72.7847 65.7997 72.7847 62.5779V12.9825C72.7847 9.76065 70.1619 7.13916 66.9385 7.13916H8.47702Z" fill="#001AFF"/>
<path d="M74.0247 24.5081H1.39078C0.705685 24.5081 0.150688 23.9533 0.150688 23.2686C0.150688 22.5845 0.705685 22.0291 1.39078 22.0291H74.0247C74.7098 22.0291 75.2648 22.5845 75.2648 23.2686C75.2648 23.9533 74.7098 24.5081 74.0247 24.5081Z" fill="#001AFF"/>
<path d="M21.3388 18.577C19.1756 18.577 17.4144 16.8167 17.4144 14.6545C17.4144 12.4916 19.1756 10.7319 21.3388 10.7319C23.5027 10.7319 25.2632 12.4916 25.2632 14.6545C25.2632 16.8167 23.5027 18.577 21.3388 18.577ZM21.3388 13.2109C20.543 13.2109 19.8946 13.8584 19.8946 14.6545C19.8946 15.4506 20.543 16.098 21.3388 16.098C22.1353 16.098 22.7831 15.4506 22.7831 14.6545C22.7831 13.8584 22.1353 13.2109 21.3388 13.2109Z" fill="#001AFF"/>
<path d="M9.28113 18.539C7.11719 18.539 5.3567 16.7793 5.3567 14.6164C5.3567 12.4535 7.11719 10.6938 9.28113 10.6938C11.4451 10.6938 13.2055 12.4535 13.2055 14.6164C13.2055 16.7793 11.4451 18.539 9.28113 18.539ZM9.28113 13.1729C8.48531 13.1729 7.83689 13.821 7.83689 14.6164C7.83689 15.4125 8.48531 16.06 9.28113 16.06C10.0776 16.06 10.7254 15.4125 10.7254 14.6164C10.7254 13.821 10.0776 13.1729 9.28113 13.1729Z" fill="#001AFF"/>
<path d="M33.3965 18.6144C31.2333 18.6144 29.4728 16.8548 29.4728 14.6919C29.4728 12.5297 31.2333 10.77 33.3965 10.77C35.5605 10.77 37.321 12.5297 37.321 14.6919C37.321 16.8548 35.5605 18.6144 33.3965 18.6144ZM33.3965 13.2483C32.6007 13.2483 31.953 13.8957 31.953 14.6919C31.953 15.488 32.6007 16.1354 33.3965 16.1354C34.193 16.1354 34.8408 15.488 34.8408 14.6919C34.8408 13.8957 34.193 13.2483 33.3965 13.2483Z" fill="#001AFF"/>
</g>
<defs>
<clipPath id="clip0">
<rect width="75.1142" height="75.0784" fill="white" transform="translate(0.150688 0.233398)"/>
</clipPath>
</defs>
</svg>
