<svg width="1488" height="1079" viewBox="0 0 1488 1079" fill="none" xmlns="http://www.w3.org/2000/svg">
<path d="M927 1062H558L570.509 919H914.491L927 1062Z" fill="#E6E6E6"/>
<path d="M954 1047H539V1079H954V1047Z" fill="#E6E6E6"/>
<path d="M1450.41 0H37.5916C27.6216 0 18.0601 3.47133 11.0103 9.65022C3.96049 15.8291 0 24.2094 0 32.9477V32.9477V788H1488V32.9477C1488 28.621 1487.03 24.3366 1485.14 20.3392C1483.25 16.3418 1480.48 12.7097 1476.99 9.65022C1473.5 6.59074 1469.35 4.1638 1464.79 2.50802C1460.23 0.852241 1455.35 3.74139e-06 1450.41 0H1450.41Z" fill="#3F3D56"/>
<path d="M0 788V911.947C0 916.288 0.972363 920.586 2.86152 924.596C4.75067 928.606 7.51958 932.25 11.0103 935.319C14.501 938.388 18.6451 940.823 23.2059 942.484C27.7667 944.145 32.655 945 37.5916 945H1450.41C1460.38 945 1469.94 941.518 1476.99 935.319C1484.04 929.121 1488 920.713 1488 911.947V788H0Z" fill="#E6E6E6"/>
<path d="M1417 69H74V728H1417V69Z" fill="#E6E6E6"/>
<path d="M747 899C767.434 899 784 884.001 784 865.5C784 846.998 767.434 832 747 832C726.565 832 710 846.998 710 865.5C710 884.001 726.565 899 747 899Z" fill="#3F3D56"/>
<path d="M118 98C122.418 98 126 95.0899 126 91.5C126 87.9102 122.418 85 118 85C113.582 85 110 87.9102 110 91.5C110 95.0899 113.582 98 118 98Z" fill="white"/>
<path d="M144.5 98C147.538 98 150 95.0899 150 91.5C150 87.9102 147.538 85 144.5 85C141.462 85 139 87.9102 139 91.5C139 95.0899 141.462 98 144.5 98Z" fill="white"/>
<path d="M171.5 98C175.642 98 179 95.0899 179 91.5C179 87.9102 175.642 85 171.5 85C167.358 85 164 87.9102 164 91.5C164 95.0899 167.358 98 171.5 98Z" fill="white"/>
</svg>
