<svg width="70" height="70" viewBox="0 0 70 70" fill="none" xmlns="http://www.w3.org/2000/svg">
<path d="M47.6518 10.2351H47.644C46.8891 10.2351 46.2807 10.8472 46.2807 11.6023C46.2807 12.3574 46.8967 12.9695 47.6517 12.9695C48.4066 12.9695 49.0189 12.3574 49.0189 11.6023C49.0189 10.8472 48.4068 10.2351 47.6518 10.2351Z" fill="#001AFF"/>
<path d="M54.2634 10.2351H54.2596C53.5046 10.2351 52.8944 10.8472 52.8944 11.6023C52.8944 12.3574 53.5084 12.9695 54.2635 12.9695C55.0186 12.9695 55.6307 12.3574 55.6307 11.6023C55.6307 10.8472 55.0184 10.2351 54.2634 10.2351Z" fill="#001AFF"/>
<path d="M41.0402 10.2351H41.0324C40.2775 10.2351 39.6691 10.8472 39.6691 11.6023C39.6691 12.3574 40.2851 12.9695 41.0401 12.9695C41.795 12.9695 42.4073 12.3574 42.4073 11.6023C42.4073 10.8472 41.7953 10.2351 41.0402 10.2351Z" fill="#001AFF"/>
<path d="M27.1622 10.2351H8.75385C7.99888 10.2351 7.38666 10.8472 7.38666 11.6023C7.38666 12.3574 7.99888 12.9695 8.75385 12.9695H27.1622C27.9172 12.9695 28.5294 12.3574 28.5294 11.6023C28.5294 10.8472 27.9172 10.2351 27.1622 10.2351Z" fill="#001AFF"/>
<path d="M69.9862 60.6133C69.886 59.2144 69.2498 57.9413 68.1953 57.0291L63.0171 52.5453V7.85478C63.0171 5.60931 61.1903 3.78247 58.9448 3.78247H4.0723C1.82684 3.78247 0 5.60931 0 7.85478V53.226C0 55.4715 1.82684 57.2983 4.0723 57.2983H52.5119L61.3406 64.9448C62.2977 65.7727 63.4989 66.2176 64.7581 66.2176C64.8858 66.2176 65.0139 66.2129 65.1425 66.2037C66.5413 66.1038 67.814 65.4681 68.7245 64.4153C69.6382 63.362 70.0864 62.0118 69.9862 60.6133ZM2.73438 7.85478C2.73438 7.11704 3.33457 6.51685 4.0723 6.51685H58.9449C59.6827 6.51685 60.2829 7.11704 60.2829 7.85478V16.6842H2.73438V7.85478ZM4.0723 54.5639C3.33457 54.5639 2.73438 53.9637 2.73438 53.226V19.4184H60.2829V50.1776L50.3407 41.5685C50.3394 41.3953 50.3346 41.2217 50.3221 41.0474C50.2957 40.6808 50.2433 40.3203 50.1689 39.9669H55.0889C55.8439 39.9669 56.4561 39.3548 56.4561 38.5997V24.3066C56.4561 23.5515 55.8439 22.9394 55.0889 22.9394H37.6415C36.8866 22.9394 36.2744 23.5515 36.2744 24.3066C36.2744 25.0617 36.8866 25.6737 37.6415 25.6737H53.7217V37.2325H49.0235C48.6283 36.6378 48.1515 36.092 47.5966 35.6121C47.5846 35.6017 47.5724 35.5916 47.5601 35.5816C45.5666 33.9758 44.0325 33.9748 42.6789 33.9738C41.0829 33.9727 39.4326 33.9715 35.9293 31.0672C35.3566 30.5922 34.5093 30.6627 34.0226 31.2252C32.6084 32.8601 32.1087 35.0011 32.2351 37.2325H9.29551V25.6737H25.3641C26.119 25.6737 26.7313 25.0617 26.7313 24.3066C26.7313 23.5515 26.119 22.9394 25.3641 22.9394H7.92832C7.17336 22.9394 6.56113 23.5515 6.56113 24.3066V38.5997C6.56113 39.3548 7.17336 39.9669 7.92832 39.9669H32.6802C33.4819 43.0168 35.2312 45.921 37.2001 47.6246C38.6556 48.8849 40.4778 49.5618 42.3846 49.5618C42.7548 49.5625 43.1231 49.5365 43.4896 49.484L49.3548 54.5639H4.0723ZM46.3347 45.0264C45.4249 46.0786 44.1595 46.7133 42.7716 46.8135C41.3846 46.9133 40.041 46.4674 38.9897 45.5573C36.2801 43.2123 33.9497 37.5309 35.4025 34.1268C38.9085 36.7054 40.9798 36.7071 42.6772 36.7083C43.8711 36.7091 44.5941 36.7097 45.8259 37.696C46.8676 38.6046 47.4957 39.8635 47.5947 41.2434C47.6943 42.6308 47.2474 43.9738 46.3347 45.0264ZM46.464 48.4429C47.1834 48.013 47.838 47.4682 48.4017 46.8163C48.9675 46.1639 49.4137 45.4368 49.7365 44.6623L60.5075 53.9892L57.2329 57.7698L46.464 48.4429ZM66.6578 62.625C66.2244 63.1261 65.6169 63.4285 64.9474 63.4763C64.277 63.5238 63.6318 63.3113 63.1303 62.8774L59.2998 59.5598L62.5745 55.7788L66.4059 59.0966C66.908 59.5308 67.2109 60.1388 67.2588 60.8085C67.3068 61.4779 67.0938 62.1224 66.6578 62.625Z" fill="#001AFF"/>
<path d="M17.5163 45.5049H29.4023C30.1573 45.5049 30.7695 44.8928 30.7695 44.1377C30.7695 43.3826 30.1573 42.7705 29.4023 42.7705H17.5163C16.7613 42.7705 16.1491 43.3826 16.1491 44.1377C16.1491 44.8928 16.7612 45.5049 17.5163 45.5049Z" fill="#001AFF"/>
<path d="M7.92831 45.5049H11.9782C12.7332 45.5049 13.3454 44.8928 13.3454 44.1377C13.3454 43.3826 12.7332 42.7705 11.9782 42.7705H7.92831C7.17335 42.7705 6.56113 43.3826 6.56113 44.1377C6.56113 44.8928 7.17335 45.5049 7.92831 45.5049Z" fill="#001AFF"/>
<path d="M19.1399 48.3086H7.92831C7.17335 48.3086 6.56113 48.9207 6.56113 49.6758C6.56113 50.4309 7.17335 51.043 7.92831 51.043H19.1401C19.895 51.043 20.5073 50.4309 20.5073 49.6758C20.5073 48.9207 19.895 48.3086 19.1399 48.3086Z" fill="#001AFF"/>
<path d="M32.1732 48.3086H26.0654C25.3105 48.3086 24.6982 48.9207 24.6982 49.6758C24.6982 50.4309 25.3105 51.043 26.0654 51.043H32.1732C32.9282 51.043 33.5404 50.4309 33.5404 49.6758C33.5404 48.9207 32.9283 48.3086 32.1732 48.3086Z" fill="#001AFF"/>
<path d="M31.5027 25.6738H31.5105C32.2655 25.6738 32.8739 25.0617 32.8739 24.3066C32.8739 23.5515 32.2578 22.9395 31.5029 22.9395C30.7479 22.9395 30.1357 23.5515 30.1357 24.3066C30.1355 25.0617 30.7476 25.6738 31.5027 25.6738Z" fill="#001AFF"/>
</svg>
