<svg width="70" height="70" viewBox="0 0 70 70" fill="none" xmlns="http://www.w3.org/2000/svg">
<path d="M64.5312 15.3125H52.5V3.28125C52.5 2.99117 52.3848 2.71297 52.1796 2.50785C51.9745 2.30273 51.6963 2.1875 51.4062 2.1875H18.5938C18.3037 2.1875 18.0255 2.30273 17.8204 2.50785C17.6152 2.71297 17.5 2.99117 17.5 3.28125V15.3125H5.46875C4.59931 15.3151 3.76622 15.6616 3.15142 16.2764C2.53663 16.8912 2.1901 17.7243 2.1875 18.5938V53.5938C2.1901 54.4632 2.53663 55.2963 3.15142 55.9111C3.76622 56.5259 4.59931 56.8724 5.46875 56.875H27.1469L26.4141 61.25H25.1562C24.9867 61.2512 24.8196 61.2912 24.6679 61.3671C24.5162 61.4429 24.3839 61.5525 24.2812 61.6875L21 66.0625C20.8781 66.225 20.8039 66.4182 20.7857 66.6205C20.7674 66.8228 20.8059 67.0262 20.8967 67.2079C20.9876 67.3896 21.1272 67.5424 21.3 67.6491C21.4728 67.7559 21.6719 67.8125 21.875 67.8125H48.125C48.3281 67.8125 48.5272 67.7559 48.7 67.6491C48.8728 67.5424 49.0124 67.3896 49.1033 67.2079C49.1941 67.0262 49.2326 66.8228 49.2143 66.6205C49.1961 66.4182 49.1219 66.225 49 66.0625L45.7188 61.6875C45.6161 61.5525 45.4838 61.4429 45.3321 61.3671C45.1804 61.2912 45.0133 61.2512 44.8438 61.25H43.5859L42.8531 56.875H64.5312C65.4007 56.8724 66.2338 56.5259 66.8486 55.9111C67.4634 55.2963 67.8099 54.4632 67.8125 53.5938V18.5938C67.8099 17.7243 67.4634 16.8912 66.8486 16.2764C66.2338 15.6616 65.4007 15.3151 64.5312 15.3125ZM19.6875 4.375H50.3125V26.25H19.6875V4.375ZM44.2969 63.4375L45.9375 65.625H24.0625L25.7031 63.4375H44.2969ZM28.6344 61.25L29.3672 56.875H40.6328L41.3656 61.25H28.6344ZM65.625 53.5938C65.625 53.8838 65.5098 54.162 65.3046 54.3671C65.0995 54.5723 64.8213 54.6875 64.5312 54.6875H5.46875C5.17867 54.6875 4.90047 54.5723 4.69535 54.3671C4.49023 54.162 4.375 53.8838 4.375 53.5938V50.3125H65.625V53.5938ZM65.625 48.125H4.375V18.5938C4.375 18.3037 4.49023 18.0255 4.69535 17.8204C4.90047 17.6152 5.17867 17.5 5.46875 17.5H17.5V27.3438C17.5 27.6338 17.6152 27.912 17.8204 28.1171C18.0255 28.3223 18.3037 28.4375 18.5938 28.4375H51.4062C51.6963 28.4375 51.9745 28.3223 52.1796 28.1171C52.3848 27.912 52.5 27.6338 52.5 27.3438V17.5H64.5312C64.8213 17.5 65.0995 17.6152 65.3046 17.8204C65.5098 18.0255 65.625 18.3037 65.625 18.5938V48.125Z" fill="#001AFF"/>
<path d="M62.3438 30.625H49.2188C48.9287 30.625 48.6505 30.7402 48.4454 30.9454C48.2402 31.1505 48.125 31.4287 48.125 31.7188V32.8125H39.375V31.7188C39.375 31.4287 39.2598 31.1505 39.0546 30.9454C38.8495 30.7402 38.5713 30.625 38.2812 30.625H31.7188C31.4287 30.625 31.1505 30.7402 30.9454 30.9454C30.7402 31.1505 30.625 31.4287 30.625 31.7188V32.8125H21.875V31.7188C21.875 31.4287 21.7598 31.1505 21.5546 30.9454C21.3495 30.7402 21.0713 30.625 20.7812 30.625H7.65625C7.36617 30.625 7.08797 30.7402 6.88285 30.9454C6.67773 31.1505 6.5625 31.4287 6.5625 31.7188V36.0938C6.5625 36.3838 6.67773 36.662 6.88285 36.8671C7.08797 37.0723 7.36617 37.1875 7.65625 37.1875H20.7812C21.0713 37.1875 21.3495 37.0723 21.5546 36.8671C21.7598 36.662 21.875 36.3838 21.875 36.0938V35H30.625V36.0938C30.625 36.3838 30.7402 36.662 30.9454 36.8671C31.1505 37.0723 31.4287 37.1875 31.7188 37.1875H33.9062V39.375H31.7188C31.4287 39.375 31.1505 39.4902 30.9454 39.6954C30.7402 39.9005 30.625 40.1787 30.625 40.4688V44.8438C30.625 45.1338 30.7402 45.412 30.9454 45.6171C31.1505 45.8223 31.4287 45.9375 31.7188 45.9375H38.2812C38.5713 45.9375 38.8495 45.8223 39.0546 45.6171C39.2598 45.412 39.375 45.1338 39.375 44.8438V40.4688C39.375 40.1787 39.2598 39.9005 39.0546 39.6954C38.8495 39.4902 38.5713 39.375 38.2812 39.375H36.0938V37.1875H38.2812C38.5713 37.1875 38.8495 37.0723 39.0546 36.8671C39.2598 36.662 39.375 36.3838 39.375 36.0938V35H48.125V36.0938C48.125 36.3838 48.2402 36.662 48.4454 36.8671C48.6505 37.0723 48.9287 37.1875 49.2188 37.1875H62.3438C62.6338 37.1875 62.912 37.0723 63.1171 36.8671C63.3223 36.662 63.4375 36.3838 63.4375 36.0938V31.7188C63.4375 31.4287 63.3223 31.1505 63.1171 30.9454C62.912 30.7402 62.6338 30.625 62.3438 30.625ZM19.6875 35H8.75V32.8125H19.6875V35ZM37.1875 41.5625V43.75H32.8125V41.5625H37.1875ZM37.1875 35H32.8125V32.8125H37.1875V35ZM61.25 35H50.3125V32.8125H61.25V35Z" fill="#001AFF"/>
<path d="M28.758 7.97681L22.1955 14.5393C21.9904 14.7444 21.8752 15.0226 21.8752 15.3126C21.8752 15.6026 21.9904 15.8808 22.1955 16.0859L28.758 22.6484L30.3045 21.1018L24.5153 15.3126L30.3045 9.52337L28.758 7.97681Z" fill="#001AFF"/>
<path d="M41.2421 7.97681L39.6955 9.52337L45.4847 15.3126L39.6955 21.1018L41.2421 22.6484L47.8046 16.0859C48.0096 15.8808 48.1248 15.6026 48.1248 15.3126C48.1248 15.0226 48.0096 14.7444 47.8046 14.5393L41.2421 7.97681Z" fill="#001AFF"/>
<path d="M37.2469 5.12306L30.6781 24.8088L32.7521 25.5009L39.3209 5.81511L37.2469 5.12306Z" fill="#001AFF"/>
</svg>
