<svg width="570" height="636" viewBox="0 0 570 636" fill="none" xmlns="http://www.w3.org/2000/svg">
<path d="M317.244 121.742C306.418 103.464 285 102.612 285 102.612C285 102.612 264.129 99.9448 250.741 127.783C238.262 153.731 221.04 178.784 247.968 184.858L252.833 169.73L255.845 185.985C259.679 186.26 263.525 186.326 267.367 186.181C296.205 185.251 323.67 186.453 322.786 176.113C321.61 162.366 327.66 139.33 317.244 121.742Z" fill="#2F2E41"/>
<path d="M287.487 400.914C317.679 400.914 342.154 395.237 342.154 388.233C342.154 381.23 317.679 375.552 287.487 375.552C257.296 375.552 232.821 381.23 232.821 388.233C232.821 395.237 257.296 400.914 287.487 400.914Z" fill="#3F3D56"/>
<path d="M331.344 543.825L278.629 547.72L278.773 549.666L331.488 545.77L331.344 543.825Z" fill="black"/>
<path d="M244.029 537.112L243.088 538.821L262.612 549.551L263.553 547.842L244.029 537.112Z" fill="black"/>
<path d="M299.201 530.163H281.63V532.114H299.201V530.163Z" fill="black"/>
<path d="M235.747 634.603L233.799 634.471L248.442 408.164L250.39 408.296L235.747 634.603Z" fill="black"/>
<path d="M307.988 634.585L298.226 412.18L300.177 412.084L309.938 634.489L307.988 634.585Z" fill="black"/>
<path d="M327.508 410.101L325.562 410.261L344.109 634.617L346.055 634.456L327.508 410.101Z" fill="black"/>
<path d="M332.392 453.101C332.392 453.101 318.725 478.463 309.939 478.463C301.154 478.463 302.13 495.046 304.082 498.948C306.035 502.85 310.916 511.629 303.106 524.31C300.378 528.739 300.866 533.764 302.656 538.427C307.672 551.494 327.182 547.535 326.56 533.554C326.553 533.4 326.544 533.245 326.535 533.089C325.558 517.482 333.368 493.095 341.177 487.242C348.987 481.39 355.82 465.782 355.82 465.782L332.392 453.101Z" fill="#FFB8B8"/>
<path d="M238.678 447.249C238.678 447.249 252.344 472.61 261.13 472.61C269.916 472.61 268.94 489.193 266.987 493.095C265.035 496.997 260.154 505.776 267.963 518.457C270.691 522.887 270.203 527.911 268.413 532.575C263.398 545.641 243.888 541.682 244.51 527.702C244.517 527.547 244.525 527.392 244.535 527.236C245.511 511.629 237.702 487.242 229.892 481.39C222.083 475.537 215.249 459.93 215.249 459.93L238.678 447.249Z" fill="#FFB8B8"/>
<path d="M249.416 322.389L243.559 335.07C243.559 335.07 157.654 363.359 165.464 396.524C173.273 429.69 211.345 481.389 217.202 479.439C223.059 477.488 254.297 471.635 255.273 455.052C256.249 438.469 232.821 409.205 232.821 409.205L265.035 379.942L311.912 378.966L351.916 409.205C351.916 409.205 309.939 446.273 328.487 460.905C347.035 475.537 374.368 485.291 378.273 479.439C382.177 473.586 426.106 386.77 419.272 378.966C412.439 371.162 343.13 341.899 343.13 341.899L324.582 315.561L252.344 311.659L249.416 322.389Z" fill="#2F2E41"/>
<path d="M266.987 161.439C266.987 161.439 271.868 193.629 262.106 197.531C252.344 201.433 281.63 218.015 281.63 218.015H298.225L308.963 195.58C308.963 195.58 299.201 178.022 305.059 161.439C310.916 144.856 266.987 161.439 266.987 161.439Z" fill="#FFB8B8"/>
<path opacity="0.1" d="M266.987 161.439C266.987 161.439 271.868 193.629 262.106 197.531C252.344 201.433 281.63 218.015 281.63 218.015H298.225L308.963 195.58C308.963 195.58 299.201 178.022 305.059 161.439C310.916 144.856 266.987 161.439 266.987 161.439Z" fill="#D93434"/>
<path d="M260.154 188.751C260.154 188.751 270.892 200.457 272.844 202.408C274.797 204.359 283.582 215.089 302.13 199.482C320.678 183.874 322.63 202.408 322.63 202.408V319.463C322.63 319.463 307.011 312.635 294.321 319.463C281.63 326.291 255.273 317.512 255.273 317.512L250.392 196.555L260.154 188.751Z" fill="#F7F7FF"/>
<path d="M267.324 188.751C267.324 188.751 258.202 184.85 250.392 188.751C242.583 192.653 215.249 212.163 217.202 220.942C219.154 229.721 244.535 291.175 226.964 320.439C209.392 349.702 206.464 357.506 206.464 357.506L249.416 335.071C249.416 335.071 282.606 314.586 279.678 301.905C276.749 289.224 267.324 188.751 267.324 188.751Z" fill="#5200FF"/>
<path d="M306.046 188.751C306.046 188.751 326.535 190.702 327.511 192.653C328.487 194.604 358.261 202.896 356.308 211.675C354.356 220.454 327.511 298.978 339.225 313.61C350.939 328.242 370.463 348.727 363.63 350.678C356.797 352.629 345.082 347.751 333.368 350.678C321.654 353.604 294.321 329.218 297.249 302.88C300.178 276.543 297.272 195.58 306.046 188.751Z" fill="#5200FF"/>
<path d="M257.225 375.064V384.819C257.225 384.819 252.344 407.254 267.963 406.279C283.582 405.304 273.821 378.966 273.821 378.966L272.844 370.187L257.225 375.064Z" fill="#FFB8B8"/>
<path d="M301.154 376.04C301.154 376.04 290.416 398.475 301.154 400.426C311.892 402.377 319.701 387.745 319.701 383.843C319.701 379.942 301.154 376.04 301.154 376.04Z" fill="#FFB8B8"/>
<path d="M266.011 634.56L264.059 634.514L269.916 410.158L271.868 410.205L266.011 634.56Z" fill="#2F2E41"/>
<path d="M315.309 152.172C316.387 152.172 317.261 150.425 317.261 148.27C317.261 146.115 316.387 144.368 315.309 144.368C314.23 144.368 313.356 146.115 313.356 148.27C313.356 150.425 314.23 152.172 315.309 152.172Z" fill="#FFB8B8"/>
<path d="M257.713 152.172C258.792 152.172 259.666 150.425 259.666 148.27C259.666 146.115 258.792 144.368 257.713 144.368C256.635 144.368 255.761 146.115 255.761 148.27C255.761 150.425 256.635 152.172 257.713 152.172Z" fill="#FFB8B8"/>
<path d="M332.392 201.433C332.392 201.433 356.796 201.433 355.82 211.187C354.844 220.942 322.63 388.721 322.63 388.721C322.63 388.721 308.963 376.04 297.249 378.966L332.392 201.433Z" fill="#5200FF"/>
<path d="M237.702 204.359C237.702 204.359 213.297 209.236 213.297 223.868C213.297 238.5 248.44 378.966 253.321 378.966C258.202 378.966 276.749 376.04 276.749 371.163C276.749 366.285 237.702 204.359 237.702 204.359Z" fill="#5200FF"/>
<path opacity="0.2" d="M243.071 233.135L265.035 318.967C265.035 318.967 254.785 243.865 243.071 233.135Z" fill="#D93434"/>
<path opacity="0.2" d="M328.504 221.074L306.29 333.295C306.29 333.295 313.389 227.548 328.504 221.074Z" fill="#D93434"/>
<path d="M286.511 177.046C302.146 177.046 314.82 164.381 314.82 148.758C314.82 133.134 302.146 120.469 286.511 120.469C270.876 120.469 258.202 133.134 258.202 148.758C258.202 164.381 270.876 177.046 286.511 177.046Z" fill="#FFB8B8"/>
<path d="M312.457 119.98L291.297 108.904L262.077 113.435L256.031 140.117L271.08 139.539L275.285 129.736V139.378L282.229 139.11L286.259 123.504L288.779 140.117L313.465 139.614L312.457 119.98Z" fill="#2F2E41"/>
</svg>
