<svg width="971" height="396" viewBox="0 0 971 396" fill="none" xmlns="http://www.w3.org/2000/svg">
<path fill-rule="evenodd" clip-rule="evenodd" d="M188.236 62.4112C188.236 56.394 193.1 51.5273 199.127 51.5273H577.927C583.943 51.5273 588.818 56.3972 588.818 62.4112V321.743C588.818 327.76 583.954 332.626 577.927 332.626H199.127C193.112 332.626 188.236 327.757 188.236 321.743V62.4112Z" fill="white" stroke="#001AFF" stroke-width="2.08143"/>
<path fill-rule="evenodd" clip-rule="evenodd" d="M212.738 80.3006C212.738 77.7241 214.835 75.6326 217.408 75.6326H559.257C561.84 75.6326 563.927 77.7122 563.927 80.3006V273.527C563.927 276.103 561.831 278.195 559.257 278.195H217.408C214.826 278.195 212.738 276.115 212.738 273.527V80.3006Z" fill="white" stroke="#001AFF" stroke-width="2.08143"/>
<path fill-rule="evenodd" clip-rule="evenodd" d="M360.001 332.626H417.442L421.32 382.781H356.123L360.001 332.626Z" fill="white" stroke="#001AFF" stroke-width="2.08143"/>
<path fill-rule="evenodd" clip-rule="evenodd" d="M332.133 393.671V388.418C332.133 385.31 334.658 382.781 337.765 382.781H439.678C442.78 382.781 445.31 385.31 445.31 388.418V393.671C445.31 393.889 445.142 394.056 444.919 394.056H332.524C332.306 394.056 332.133 393.883 332.133 393.671Z" fill="white" stroke="#001AFF" stroke-width="2.08143"/>
<path d="M388.722 314.742C392.695 314.742 395.917 311.522 395.917 307.549C395.917 303.577 392.695 300.356 388.722 300.356C384.748 300.356 381.527 303.577 381.527 307.549C381.527 311.522 384.748 314.742 388.722 314.742Z" stroke="#001AFF" stroke-width="2.08143"/>
<path d="M218.965 243.203H160.617C155.466 243.203 151.289 247.381 151.289 252.534V384.725C151.289 389.878 155.466 394.056 160.617 394.056H218.965C224.116 394.056 228.293 389.878 228.293 384.725V252.534C228.293 247.381 224.116 243.203 218.965 243.203Z" fill="white" stroke="#001AFF" stroke-width="2.08143"/>
<path fill-rule="evenodd" clip-rule="evenodd" d="M151.289 259.922H228.293V371.623H151.289V259.922Z" fill="white" stroke="#001AFF" stroke-width="2.08143"/>
<path d="M206.904 249.813H173.067C172.208 249.813 171.512 250.509 171.512 251.368C171.512 252.227 172.208 252.923 173.067 252.923H206.904C207.763 252.923 208.459 252.227 208.459 251.368C208.459 250.509 207.763 249.813 206.904 249.813Z" fill="#001AFF"/>
<path d="M189.949 378.115H189.944C187.497 378.115 185.513 380.1 185.513 382.548C185.513 384.995 187.497 386.98 189.944 386.98H189.949C192.397 386.98 194.38 384.995 194.38 382.548C194.38 380.1 192.397 378.115 189.949 378.115Z" fill="#001AFF"/>
<path d="M173.068 321.351C176.29 321.351 178.901 318.74 178.901 315.519C178.901 312.299 176.29 309.688 173.068 309.688C169.846 309.688 167.234 312.299 167.234 315.519C167.234 318.74 169.846 321.351 173.068 321.351Z" fill="white" stroke="#001AFF" stroke-width="2.08143"/>
<path d="M212.349 305.411H188.234C187.376 305.411 186.68 306.107 186.68 306.966C186.68 307.825 187.376 308.521 188.234 308.521H212.349C213.208 308.521 213.904 307.825 213.904 306.966C213.904 306.107 213.208 305.411 212.349 305.411Z" fill="#001AFF"/>
<path d="M204.571 313.964H188.234C187.376 313.964 186.68 314.66 186.68 315.519C186.68 316.378 187.376 317.074 188.234 317.074H204.571C205.43 317.074 206.126 316.378 206.126 315.519C206.126 314.66 205.43 313.964 204.571 313.964Z" fill="#001AFF"/>
<path d="M196.793 322.518H188.234C187.376 322.518 186.68 323.214 186.68 324.073C186.68 324.932 187.376 325.628 188.234 325.628H196.793C197.651 325.628 198.347 324.932 198.347 324.073C198.347 323.214 197.651 322.518 196.793 322.518Z" fill="#001AFF"/>
<path d="M111.813 316.297C144.785 316.297 171.513 289.577 171.513 256.617C171.513 223.656 144.785 196.937 111.813 196.937C78.8422 196.937 52.1138 223.656 52.1138 256.617C52.1138 289.577 78.8422 316.297 111.813 316.297Z" fill="white" stroke="#001AFF" stroke-width="2.08143"/>
<path d="M756.058 184.495H486.918C481.766 184.495 477.59 188.673 477.59 193.826V368.396C477.59 373.549 481.766 377.727 486.918 377.727H756.058C761.21 377.727 765.386 373.549 765.386 368.396V193.826C765.386 188.673 761.21 184.495 756.058 184.495Z" fill="white" stroke="#001AFF" stroke-width="2.08143"/>
<path fill-rule="evenodd" clip-rule="evenodd" d="M457.753 378.107V385.891C457.753 390.394 461.411 394.056 465.913 394.056H777.063C781.562 394.056 785.223 390.396 785.223 385.891V378.107C785.223 377.895 785.054 377.727 784.836 377.727H458.14C457.922 377.727 457.753 377.895 457.753 378.107Z" fill="white" stroke="#001AFF" stroke-width="2.08143"/>
<path fill-rule="evenodd" clip-rule="evenodd" d="M642.994 377.902L599.436 377.901C601.174 382.493 605.609 385.677 610.697 385.677H631.734C636.823 385.677 641.257 382.494 642.994 377.902Z" fill="white" stroke="#001AFF" stroke-width="2.08143"/>
<path d="M749.214 202.769H493.532C491.814 202.769 490.422 204.161 490.422 205.879V356.673C490.422 358.391 491.814 359.784 493.532 359.784H749.214C750.931 359.784 752.323 358.391 752.323 356.673V205.879C752.323 204.161 750.931 202.769 749.214 202.769Z" fill="white" stroke="#001AFF" stroke-width="2.08143"/>
<path d="M379.971 81.0757C381.045 81.0757 381.916 80.2053 381.916 79.1317C381.916 78.0581 381.045 77.1877 379.971 77.1877C378.897 77.1877 378.027 78.0581 378.027 79.1317C378.027 80.2053 378.897 81.0757 379.971 81.0757Z" fill="#293347"/>
<path fill-rule="evenodd" clip-rule="evenodd" d="M268.742 22.3676H448.419V194.605C448.419 200.614 443.536 205.49 437.527 205.49H279.634C273.621 205.49 268.742 200.612 268.742 194.605V22.3676Z" fill="white" stroke="#001AFF" stroke-width="2.08143"/>
<path fill-rule="evenodd" clip-rule="evenodd" d="M268.742 13.8044C268.742 7.79991 273.626 2.92786 279.634 2.92786H437.527C443.543 2.92786 448.419 7.79469 448.419 13.8044V25.478H268.742V13.8044Z" fill="white" stroke="#001AFF" stroke-width="2.08143"/>
<path d="M285.464 17.7021C287.398 17.7021 288.965 16.1354 288.965 14.2029C288.965 12.2704 287.398 10.7037 285.464 10.7037C283.531 10.7037 281.964 12.2704 281.964 14.2029C281.964 16.1354 283.531 17.7021 285.464 17.7021Z" fill="#001AFF"/>
<path d="M297.132 17.7021C299.065 17.7021 300.632 16.1354 300.632 14.2029C300.632 12.2704 299.065 10.7037 297.132 10.7037C295.199 10.7037 293.632 12.2704 293.632 14.2029C293.632 16.1354 295.199 17.7021 297.132 17.7021Z" fill="#001AFF"/>
<path d="M308.799 17.7021C310.733 17.7021 312.3 16.1354 312.3 14.2029C312.3 12.2704 310.733 10.7037 308.799 10.7037C306.866 10.7037 305.299 12.2704 305.299 14.2029C305.299 16.1354 306.866 17.7021 308.799 17.7021Z" fill="#001AFF"/>
<path d="M295.966 135.896H292.075C291.216 135.896 290.52 136.592 290.52 137.451C290.52 138.31 291.216 139.006 292.075 139.006H295.966C296.825 139.006 297.521 138.31 297.521 137.451C297.521 136.592 296.825 135.896 295.966 135.896Z" fill="#001AFF"/>
<path d="M295.966 58.1368H292.075C291.216 58.1368 290.52 58.8331 290.52 59.692C290.52 60.5509 291.216 61.2472 292.075 61.2472H295.966C296.825 61.2472 297.521 60.5509 297.521 59.692C297.521 58.8331 296.825 58.1368 295.966 58.1368Z" fill="#001AFF"/>
<path fill-rule="evenodd" clip-rule="evenodd" d="M303.743 58.1368H314.245C315.104 58.1368 315.8 58.8331 315.8 59.692C315.8 60.5509 315.104 61.2472 314.245 61.2472H303.743C302.884 61.2472 302.188 60.5509 302.188 59.692C302.188 58.8331 302.884 58.1368 303.743 58.1368Z" fill="#001AFF"/>
<path fill-rule="evenodd" clip-rule="evenodd" d="M321.244 58.1368H331.747C332.605 58.1368 333.301 58.8331 333.301 59.692C333.301 60.5509 332.605 61.2472 331.747 61.2472H321.244C320.385 61.2472 319.689 60.5509 319.689 59.692C319.689 58.8331 320.385 58.1368 321.244 58.1368Z" fill="#001AFF"/>
<path fill-rule="evenodd" clip-rule="evenodd" d="M338.745 58.1368H358.193C359.051 58.1368 359.747 58.8331 359.747 59.692C359.747 60.5509 359.051 61.2472 358.193 61.2472H338.745C337.886 61.2472 337.19 60.5509 337.19 59.692C337.19 58.8331 337.886 58.1368 338.745 58.1368Z" fill="#001AFF"/>
<path fill-rule="evenodd" clip-rule="evenodd" d="M365.191 58.1368H393.973C394.832 58.1368 395.528 58.8331 395.528 59.692C395.528 60.5509 394.832 61.2472 393.973 61.2472H365.191C364.333 61.2472 363.637 60.5509 363.637 59.692C363.637 58.8331 364.333 58.1368 365.191 58.1368Z" fill="#001AFF"/>
<path d="M295.966 73.6886H292.075C291.216 73.6886 290.52 74.3849 290.52 75.2438C290.52 76.1027 291.216 76.799 292.075 76.799H295.966C296.825 76.799 297.521 76.1027 297.521 75.2438C297.521 74.3849 296.825 73.6886 295.966 73.6886Z" fill="#001AFF"/>
<path d="M295.966 89.2405H292.075C291.216 89.2405 290.52 89.9368 290.52 90.7957C290.52 91.6546 291.216 92.3508 292.075 92.3508H295.966C296.825 92.3508 297.521 91.6546 297.521 90.7957C297.521 89.9368 296.825 89.2405 295.966 89.2405Z" fill="#001AFF"/>
<path d="M295.966 104.792H292.075C291.216 104.792 290.52 105.489 290.52 106.347C290.52 107.206 291.216 107.903 292.075 107.903H295.966C296.825 107.903 297.521 107.206 297.521 106.347C297.521 105.489 296.825 104.792 295.966 104.792Z" fill="#001AFF"/>
<path d="M295.966 120.344H292.075C291.216 120.344 290.52 121.04 290.52 121.899C290.52 122.758 291.216 123.454 292.075 123.454H295.966C296.825 123.454 297.521 122.758 297.521 121.899C297.521 121.04 296.825 120.344 295.966 120.344Z" fill="#001AFF"/>
<path d="M295.966 151.448H292.075C291.216 151.448 290.52 152.144 290.52 153.003C290.52 153.862 291.216 154.558 292.075 154.558H295.966C296.825 154.558 297.521 153.862 297.521 153.003C297.521 152.144 296.825 151.448 295.966 151.448Z" fill="#001AFF"/>
<path d="M295.966 167H292.075C291.216 167 290.52 167.696 290.52 168.555C290.52 169.414 291.216 170.11 292.075 170.11H295.966C296.825 170.11 297.521 169.414 297.521 168.555C297.521 167.696 296.825 167 295.966 167Z" fill="#001AFF"/>
<path d="M327.857 73.6886H303.743C302.884 73.6886 302.188 74.3849 302.188 75.2438C302.188 76.1027 302.884 76.799 303.743 76.799H327.857C328.716 76.799 329.412 76.1027 329.412 75.2438C329.412 74.3849 328.716 73.6886 327.857 73.6886Z" fill="#001AFF"/>
<path d="M378.416 73.6886H334.856C333.997 73.6886 333.301 74.3849 333.301 75.2438C333.301 76.1027 333.997 76.799 334.856 76.799H378.416C379.275 76.799 379.971 76.1027 379.971 75.2438C379.971 74.3849 379.275 73.6886 378.416 73.6886Z" fill="#001AFF"/>
<path d="M401.751 73.6886H385.415C384.556 73.6886 383.86 74.3849 383.86 75.2438C383.86 76.1027 384.556 76.799 385.415 76.799H401.751C402.61 76.799 403.306 76.1027 403.306 75.2438C403.306 74.3849 402.61 73.6886 401.751 73.6886Z" fill="#001AFF"/>
<path d="M320.079 89.2405H303.743C302.884 89.2405 302.188 89.9368 302.188 90.7957C302.188 91.6546 302.884 92.3508 303.743 92.3508H320.079C320.938 92.3508 321.634 91.6546 321.634 90.7957C321.634 89.9368 320.938 89.2405 320.079 89.2405Z" fill="#001AFF"/>
<path d="M343.414 89.2405H327.078C326.219 89.2405 325.523 89.9368 325.523 90.7957C325.523 91.6546 326.219 92.3508 327.078 92.3508H343.414C344.273 92.3508 344.969 91.6546 344.969 90.7957C344.969 89.9368 344.273 89.2405 343.414 89.2405Z" fill="#001AFF"/>
<path d="M358.971 89.2405H350.412C349.554 89.2405 348.858 89.9368 348.858 90.7957C348.858 91.6546 349.554 92.3508 350.412 92.3508H358.971C359.829 92.3508 360.525 91.6546 360.525 90.7957C360.525 89.9368 359.829 89.2405 358.971 89.2405Z" fill="#001AFF"/>
<path d="M339.525 104.792H303.743C302.884 104.792 302.188 105.489 302.188 106.347C302.188 107.206 302.884 107.903 303.743 107.903H339.525C340.383 107.903 341.08 107.206 341.08 106.347C341.08 105.489 340.383 104.792 339.525 104.792Z" fill="#001AFF"/>
<path d="M370.638 104.792H346.523C345.665 104.792 344.969 105.489 344.969 106.347C344.969 107.206 345.665 107.903 346.523 107.903H370.638C371.497 107.903 372.193 107.206 372.193 106.347C372.193 105.489 371.497 104.792 370.638 104.792Z" fill="#001AFF"/>
<path d="M339.525 120.344H303.743C302.884 120.344 302.188 121.04 302.188 121.899C302.188 122.758 302.884 123.454 303.743 123.454H339.525C340.383 123.454 341.08 122.758 341.08 121.899C341.08 121.04 340.383 120.344 339.525 120.344Z" fill="#001AFF"/>
<path d="M393.973 120.344H346.523C345.665 120.344 344.969 121.04 344.969 121.899C344.969 122.758 345.665 123.454 346.523 123.454H393.973C394.832 123.454 395.528 122.758 395.528 121.899C395.528 121.04 394.832 120.344 393.973 120.344Z" fill="#001AFF"/>
<path d="M327.857 135.896H303.743C302.884 135.896 302.188 136.592 302.188 137.451C302.188 138.31 302.884 139.006 303.743 139.006H327.857C328.716 139.006 329.412 138.31 329.412 137.451C329.412 136.592 328.716 135.896 327.857 135.896Z" fill="#001AFF"/>
<path d="M358.971 135.896H334.856C333.997 135.896 333.301 136.592 333.301 137.451C333.301 138.31 333.997 139.006 334.856 139.006H358.971C359.829 139.006 360.525 138.31 360.525 137.451C360.525 136.592 359.829 135.896 358.971 135.896Z" fill="#001AFF"/>
<path d="M378.416 135.896H365.969C365.111 135.896 364.414 136.592 364.414 137.451C364.414 138.31 365.111 139.006 365.969 139.006H378.416C379.275 139.006 379.971 138.31 379.971 137.451C379.971 136.592 379.275 135.896 378.416 135.896Z" fill="#001AFF"/>
<path d="M351.192 151.448H303.743C302.884 151.448 302.188 152.144 302.188 153.003C302.188 153.862 302.884 154.558 303.743 154.558H351.192C352.051 154.558 352.747 153.862 352.747 153.003C352.747 152.144 352.051 151.448 351.192 151.448Z" fill="#001AFF"/>
<path d="M323.968 167H303.743C302.884 167 302.188 167.696 302.188 168.555C302.188 169.414 302.884 170.11 303.743 170.11H323.968C324.827 170.11 325.523 169.414 325.523 168.555C325.523 167.696 324.827 167 323.968 167Z" fill="#001AFF"/>
<path fill-rule="evenodd" clip-rule="evenodd" d="M619.933 144.449H833.057V296.093C833.057 302.1 828.188 306.966 822.174 306.966H630.817C624.81 306.966 619.933 302.092 619.933 296.093V144.449Z" fill="white" stroke="#001AFF" stroke-width="2.08143"/>
<path fill-rule="evenodd" clip-rule="evenodd" d="M619.933 135.886C619.933 129.877 624.803 125.01 630.817 125.01H822.174C828.185 125.01 833.057 129.877 833.057 135.886V147.56H619.933V135.886Z" fill="white" stroke="#001AFF" stroke-width="2.08143"/>
<path d="M636.656 139.784C638.589 139.784 640.156 138.217 640.156 136.285C640.156 134.352 638.589 132.786 636.656 132.786C634.723 132.786 633.156 134.352 633.156 136.285C633.156 138.217 634.723 139.784 636.656 139.784Z" fill="#001AFF"/>
<path d="M648.323 139.784C650.256 139.784 651.823 138.217 651.823 136.285C651.823 134.352 650.256 132.786 648.323 132.786C646.39 132.786 644.823 134.352 644.823 136.285C644.823 138.217 646.39 139.784 648.323 139.784Z" fill="#001AFF"/>
<path d="M659.991 139.784C661.924 139.784 663.491 138.217 663.491 136.285C663.491 134.352 661.924 132.786 659.991 132.786C658.058 132.786 656.49 134.352 656.49 136.285C656.49 138.217 658.058 139.784 659.991 139.784Z" fill="#001AFF"/>
<path d="M751.775 264.587C773.254 264.587 790.667 247.18 790.667 225.708C790.667 204.235 773.254 186.828 751.775 186.828C730.296 186.828 712.883 204.235 712.883 225.708C712.883 247.18 730.296 264.587 751.775 264.587Z" fill="white" stroke="#001AFF" stroke-width="2.34161"/>
<path fill-rule="evenodd" clip-rule="evenodd" d="M747.496 182.162V191.494H756.832V182.162H747.496Z" fill="white" stroke="#001AFF" stroke-width="2.08143"/>
<path fill-rule="evenodd" clip-rule="evenodd" d="M747.107 259.922V269.253H756.443V259.922H747.107Z" fill="white" stroke="#001AFF" stroke-width="2.08143"/>
<path fill-rule="evenodd" clip-rule="evenodd" d="M708.215 221.431V230.762H717.551V221.431H708.215Z" fill="white" stroke="#001AFF" stroke-width="2.08143"/>
<path fill-rule="evenodd" clip-rule="evenodd" d="M785.61 221.431V230.762H794.946V221.431H785.61Z" fill="white" stroke="#001AFF" stroke-width="2.08143"/>
<path d="M790.667 190.716V219.876" stroke="#001AFF" stroke-width="2.08143" stroke-linecap="square"/>
<path d="M790.667 231.54V260.699" stroke="#001AFF" stroke-width="2.08143" stroke-linecap="square"/>
<path d="M790.667 194.215C793.244 194.215 795.334 192.126 795.334 189.55C795.334 186.973 793.244 184.884 790.667 184.884C788.089 184.884 786 186.973 786 189.55C786 192.126 788.089 194.215 790.667 194.215Z" fill="#001AFF"/>
<path d="M790.667 268.086C793.244 268.086 795.334 265.997 795.334 263.421C795.334 260.844 793.244 258.755 790.667 258.755C788.089 258.755 786 260.844 786 263.421C786 265.997 788.089 268.086 790.667 268.086Z" fill="#001AFF"/>
<path d="M677.496 178.663H662.709C660.133 178.663 658.045 180.752 658.045 183.329V198.103C658.045 200.68 660.133 202.769 662.709 202.769H677.496C680.072 202.769 682.16 200.68 682.16 198.103V183.329C682.16 180.752 680.072 178.663 677.496 178.663Z" fill="white" stroke="#001AFF" stroke-width="2.08143"/>
<path d="M677.496 213.655H662.709C660.133 213.655 658.045 215.744 658.045 218.32V233.095C658.045 235.671 660.133 237.76 662.709 237.76H677.496C680.072 237.76 682.16 235.671 682.16 233.095V218.32C682.16 215.744 680.072 213.655 677.496 213.655Z" fill="white" stroke="#001AFF" stroke-width="2.08143"/>
<path d="M677.496 248.646H662.709C660.133 248.646 658.045 250.735 658.045 253.312V268.086C658.045 270.663 660.133 272.752 662.709 272.752H677.496C680.072 272.752 682.16 270.663 682.16 268.086V253.312C682.16 250.735 680.072 248.646 677.496 248.646Z" fill="white" stroke="#001AFF" stroke-width="2.08143"/>
<path d="M944.677 380.448C957.565 380.448 968.012 370.004 968.012 357.12C968.012 344.237 957.565 333.793 944.677 333.793C931.79 333.793 921.342 344.237 921.342 357.12C921.342 370.004 931.79 380.448 944.677 380.448Z" fill="white" stroke="#001AFF" stroke-width="2.08143"/>
<path d="M944.677 370.728C952.195 370.728 958.289 364.636 958.289 357.121C958.289 349.605 952.195 343.513 944.677 343.513C937.16 343.513 931.065 349.605 931.065 357.121C931.065 364.636 937.16 370.728 944.677 370.728Z" fill="white" stroke="#001AFF" stroke-width="2.08143"/>
<path d="M913.564 329.516C917.86 329.516 921.342 326.035 921.342 321.74C921.342 317.446 917.86 313.964 913.564 313.964C909.268 313.964 905.786 317.446 905.786 321.74C905.786 326.035 909.268 329.516 913.564 329.516Z" fill="white" stroke="#001AFF" stroke-width="2.08143"/>
<path fill-rule="evenodd" clip-rule="evenodd" d="M879.337 319.796C878.479 319.796 877.783 320.492 877.783 321.351V386.669C877.783 390.963 881.263 394.445 885.556 394.445H939.211C943.504 394.445 946.984 390.963 946.984 386.669V321.351C946.984 320.492 946.288 319.796 945.43 319.796H879.337Z" fill="white" stroke="#001AFF" stroke-width="2.08143"/>
<path d="M926.402 340.791H915.505C912.929 340.791 910.841 342.88 910.841 345.457V361.008C910.841 363.585 912.929 365.674 915.505 365.674H926.402C928.978 365.674 931.066 363.585 931.066 361.008V345.457C931.066 342.88 928.978 340.791 926.402 340.791Z" fill="white" stroke="#001AFF" stroke-width="2.08143"/>
<path d="M920.759 320.379V338.07" stroke="#001AFF" stroke-width="2.08143" stroke-linecap="square"/>
<path fill-rule="evenodd" clip-rule="evenodd" d="M833.447 394.056C846.335 394.056 856.782 394.056 856.782 394.056C856.782 381.172 846.335 370.728 833.447 370.728C820.56 370.728 810.112 381.172 810.112 394.056C810.112 394.056 820.56 394.056 833.447 394.056Z" fill="white" stroke="#001AFF" stroke-width="2.08143"/>
<path d="M835.003 371.507C835.003 370.647 834.307 369.951 833.447 369.951C832.588 369.951 831.892 370.647 831.892 371.507V373.449C831.892 374.308 832.588 375.005 833.447 375.005C834.307 375.005 835.003 374.308 835.003 373.449V371.507Z" fill="#001AFF"/>
<path fill-rule="evenodd" clip-rule="evenodd" d="M24.4862 348.178C11.8215 348.178 1.55469 358.448 1.55469 371.117C1.55469 383.786 11.8215 394.056 24.4862 394.056H118.622C119.91 394.056 120.954 393.012 120.954 391.723V388.113C120.954 386.481 119.693 385.126 118.065 385.011C107.378 384.251 101.702 379.555 101.702 371.117C101.702 362.679 107.378 357.983 118.065 357.224C119.693 357.108 120.954 355.753 120.954 354.121V350.511C120.954 349.222 119.91 348.178 118.622 348.178H24.4862Z" fill="white" stroke="#001AFF" stroke-width="2.08143"/>
<path d="M119.786 385.988C119.786 386.364 119.481 386.669 119.105 386.669H108.085H24.1128C15.5211 386.669 8.55615 379.706 8.55615 371.117C8.55615 362.528 15.5211 355.565 24.1128 355.565H108.085H119.105C119.481 355.565 119.786 355.87 119.786 356.247" stroke="#001AFF" stroke-width="2.08143"/>
<path d="M101.119 364.508H22.5561C21.6975 364.508 21.0015 365.204 21.0015 366.063C21.0015 366.922 21.6975 367.618 22.5561 367.618H101.119C101.978 367.618 102.674 366.922 102.674 366.063C102.674 365.204 101.978 364.508 101.119 364.508Z" fill="#001AFF"/>
<path d="M101.119 374.227H22.5561C21.6975 374.227 21.0015 374.924 21.0015 375.783C21.0015 376.642 21.6975 377.338 22.5561 377.338H101.119C101.978 377.338 102.674 376.642 102.674 375.783C102.674 374.924 101.978 374.227 101.119 374.227Z" fill="#001AFF"/>
<path d="M97.2891 270.558C95.3804 268.861 93.4718 267.165 91.5632 265.469C88.5215 262.769 85.4886 260.06 82.447 257.359C81.7498 256.745 81.0526 256.122 80.3641 255.507C80.3641 256.321 80.3641 257.143 80.3641 257.957C82.2727 256.26 84.1813 254.564 86.09 252.868C89.1316 250.167 92.1645 247.458 95.2061 244.758C95.9033 244.144 96.6006 243.52 97.2891 242.906C97.9689 242.3 97.9601 241.063 97.2891 240.457C96.5657 239.79 95.5547 239.808 94.8227 240.457C92.914 242.153 91.0054 243.849 89.0967 245.546C86.0551 248.246 83.0222 250.955 79.9806 253.655C79.2834 254.27 78.5862 254.893 77.8977 255.507C77.2266 256.104 77.2266 257.359 77.8977 257.957C79.8063 259.653 81.7149 261.349 83.6236 263.045C86.6652 265.746 89.6981 268.455 92.7397 271.155C93.4369 271.769 94.1342 272.393 94.8227 273.007C95.5024 273.613 96.6267 273.725 97.2891 273.007C97.8991 272.349 98.0124 271.207 97.2891 270.558Z" fill="#001AFF"/>
<path d="M126.353 242.91C128.262 244.607 130.171 246.303 132.079 247.999C135.121 250.699 138.154 253.408 141.195 256.109C141.893 256.723 142.59 257.346 143.278 257.961C143.278 257.147 143.278 256.325 143.278 255.511C141.37 257.208 139.461 258.904 137.552 260.6C134.511 263.301 131.478 266.01 128.436 268.71C127.739 269.324 127.042 269.948 126.353 270.562C125.674 271.168 125.682 272.405 126.353 273.011C127.077 273.678 128.088 273.66 128.82 273.011C130.728 271.315 132.637 269.619 134.546 267.922C137.587 265.222 140.62 262.513 143.662 259.813C144.359 259.198 145.056 258.575 145.745 257.961C146.416 257.364 146.416 256.109 145.745 255.511C143.836 253.815 141.928 252.119 140.019 250.423C136.977 247.722 133.944 245.013 130.903 242.313C130.206 241.699 129.508 241.075 128.82 240.461C128.14 239.855 127.016 239.743 126.353 240.461C125.743 241.119 125.63 242.261 126.353 242.91Z" fill="#001AFF"/>
<path d="M105.606 280.75C106.128 279.192 106.643 277.634 107.166 276.068C108.412 272.32 109.658 268.582 110.904 264.834C112.403 260.316 113.902 255.807 115.41 251.29C116.709 247.386 118.007 243.483 119.306 239.58C119.925 237.684 120.622 235.798 121.197 233.876C121.206 233.85 121.215 233.824 121.223 233.798C121.511 232.942 120.892 231.868 120.003 231.669C119.044 231.453 118.164 231.955 117.859 232.881C117.336 234.439 116.822 235.997 116.299 237.563C115.053 241.311 113.807 245.049 112.56 248.797C111.061 253.315 109.562 257.824 108.055 262.342C106.756 266.245 105.457 270.148 104.159 274.051C103.54 275.938 102.843 277.825 102.268 279.746C102.259 279.772 102.25 279.798 102.241 279.824C101.954 280.681 102.573 281.754 103.462 281.953C104.42 282.169 105.301 281.667 105.606 280.75Z" fill="#001AFF"/>
</svg>
