<svg aria-hidden="true" style="position: absolute; width: 0; height: 0; overflow: hidden;" version="1.1" xmlns="http://www.w3.org/2000/svg" xmlns:xlink="http://www.w3.org/1999/xlink">
<defs>
<symbol id="icon-tools" viewBox="0 0 31 32">
<path d="M0.211 5.646c-0.847 0.848-0.666 2.042 0.008 2.715 0.027 0.026 2.734 2.612 6.541 6.419 0.098 0.098 0.226 0.146 0.354 0.146s0.256-0.049 0.354-0.146c0.195-0.195 0.195-0.512 0-0.707-0.574-0.574-1.12-1.117-1.638-1.631l1.589-1.589c0.195-0.195 0.195-0.512 0-0.707s-0.512-0.195-0.707 0l-1.593 1.593c-0.891-0.88-1.676-1.648-2.315-2.271l3.615-3.615c0.195-0.195 0.195-0.512 0-0.707s-0.512-0.195-0.707 0l-3.626 3.626c-0.736-0.713-1.16-1.118-1.167-1.125-0.211-0.211-0.488-0.805 0-1.293l5-5c0.193-0.196 0.707-0.585 1.271-0.024 0.025 0.028 2.55 2.896 6.404 6.75 0.195 0.195 0.512 0.195 0.707 0s0.195-0.512 0-0.707c-3.83-3.829-6.336-6.675-6.382-6.727-0.932-0.93-2.056-0.651-2.707 0l-5.001 5zM21.419 24.146c-0.195-0.195-0.512-0.195-0.707 0l-1.591 1.59c-0.485-0.491-0.994-1.005-1.53-1.541-0.195-0.195-0.512-0.195-0.707 0s-0.195 0.512 0 0.707c3.704 3.703 6.291 6.469 6.328 6.509 0.343 0.344 0.813 0.533 1.323 0.533v0c0.525 0 1.056-0.205 1.385-0.535l4.998-5.057c0.629-0.629 0.665-1.696 0.078-2.285l-6.706-6.705c-0.195-0.195-0.512-0.195-0.707 0s-0.195 0.512 0 0.707l6.706 6.705c0.2 0.2 0.162 0.632-0.079 0.873l-4.999 5.057c-0.115 0.116-0.376 0.24-0.676 0.24 0 0 0 0 0 0-0.172 0-0.418-0.042-0.604-0.229-0.010-0.011-0.429-0.458-1.156-1.219l3.644-3.644c0.195-0.195 0.195-0.512 0-0.707s-0.512-0.195-0.707 0l-3.629 3.629c-0.624-0.649-1.389-1.438-2.26-2.326l1.596-1.596c0.195-0.194 0.195-0.51 0-0.706zM-0.293 31.829c0.096 0.098 0.225 0.15 0.358 0.15 0.048 0 0.096-0.007 0.143-0.021l10-2.979c0.081-0.024 0.153-0.067 0.212-0.127l17.090-17.205c0.024-0.024 0.036-0.055 0.054-0.082l3.656-3.656c0.294-0.295 0.457-0.686 0.457-1.103s-0.163-0.807-0.457-1.1l-5.235-5.234c-0.588-0.588-1.615-0.588-2.203 0l-3.739 3.739c-0.024 0.024-0.037 0.055-0.055 0.083l-17.116 17.117c-0.056 0.056-0.098 0.124-0.122 0.199l-3.16 9.715c-0.058 0.177-0.013 0.37 0.117 0.504zM20.425 5.271l1.039 1.039-15.523 15.565-1.727-0.392 16.211-16.212zM6.565 22.666l15.607-15.648 2.436 2.436-15.748 15.546h-2.295v-2.334zM26.449 11.296l-16.244 16.354-0.577-2.002 15.687-15.487 1.134 1.135zM3.558 22.359l2.007 0.456v2.685c0 0.276 0.224 0.5 0.5 0.5h2.624l0.634 2.2-8.488 2.529 2.723-8.37zM24.49 1.179c0.211-0.211 0.578-0.211 0.789 0l5.235 5.235c0.105 0.105 0.163 0.245 0.163 0.394 0 0.148-0.058 0.289-0.164 0.395l-3.371 3.372-6.023-6.023 3.371-3.373z"></path>
</symbol>
<symbol id="icon-github" viewBox="0 0 24 28">
<path d="M12 2c6.625 0 12 5.375 12 12 0 5.297-3.437 9.797-8.203 11.391-0.609 0.109-0.828-0.266-0.828-0.578 0-0.391 0.016-1.687 0.016-3.297 0-1.125-0.375-1.844-0.812-2.219 2.672-0.297 5.484-1.313 5.484-5.922 0-1.313-0.469-2.375-1.234-3.219 0.125-0.313 0.531-1.531-0.125-3.187-1-0.313-3.297 1.234-3.297 1.234-0.953-0.266-1.984-0.406-3-0.406s-2.047 0.141-3 0.406c0 0-2.297-1.547-3.297-1.234-0.656 1.656-0.25 2.875-0.125 3.187-0.766 0.844-1.234 1.906-1.234 3.219 0 4.594 2.797 5.625 5.469 5.922-0.344 0.313-0.656 0.844-0.766 1.609-0.688 0.313-2.438 0.844-3.484-1-0.656-1.141-1.844-1.234-1.844-1.234-1.172-0.016-0.078 0.734-0.078 0.734 0.781 0.359 1.328 1.75 1.328 1.75 0.703 2.141 4.047 1.422 4.047 1.422 0 1 0.016 1.937 0.016 2.234 0 0.313-0.219 0.688-0.828 0.578-4.766-1.594-8.203-6.094-8.203-11.391 0-6.625 5.375-12 12-12zM4.547 19.234c0.031-0.063-0.016-0.141-0.109-0.187-0.094-0.031-0.172-0.016-0.203 0.031-0.031 0.063 0.016 0.141 0.109 0.187 0.078 0.047 0.172 0.031 0.203-0.031zM5.031 19.766c0.063-0.047 0.047-0.156-0.031-0.25-0.078-0.078-0.187-0.109-0.25-0.047-0.063 0.047-0.047 0.156 0.031 0.25 0.078 0.078 0.187 0.109 0.25 0.047zM5.5 20.469c0.078-0.063 0.078-0.187 0-0.297-0.063-0.109-0.187-0.156-0.266-0.094-0.078 0.047-0.078 0.172 0 0.281s0.203 0.156 0.266 0.109zM6.156 21.125c0.063-0.063 0.031-0.203-0.063-0.297-0.109-0.109-0.25-0.125-0.313-0.047-0.078 0.063-0.047 0.203 0.063 0.297 0.109 0.109 0.25 0.125 0.313 0.047zM7.047 21.516c0.031-0.094-0.063-0.203-0.203-0.25-0.125-0.031-0.266 0.016-0.297 0.109s0.063 0.203 0.203 0.234c0.125 0.047 0.266 0 0.297-0.094zM8.031 21.594c0-0.109-0.125-0.187-0.266-0.172-0.141 0-0.25 0.078-0.25 0.172 0 0.109 0.109 0.187 0.266 0.172 0.141 0 0.25-0.078 0.25-0.172zM8.937 21.438c-0.016-0.094-0.141-0.156-0.281-0.141-0.141 0.031-0.234 0.125-0.219 0.234 0.016 0.094 0.141 0.156 0.281 0.125s0.234-0.125 0.219-0.219z"></path>
</symbol>
<symbol id="icon-codepen" viewBox="0 0 28 28">
<path d="M3.375 18.266l9.422 6.281v-5.609l-5.219-3.484zM2.406 16.016l3.016-2.016-3.016-2.016v4.031zM15.203 24.547l9.422-6.281-4.203-2.812-5.219 3.484v5.609zM14 16.844l4.25-2.844-4.25-2.844-4.25 2.844zM7.578 12.547l5.219-3.484v-5.609l-9.422 6.281zM22.578 14l3.016 2.016v-4.031zM20.422 12.547l4.203-2.812-9.422-6.281v5.609zM28 9.734v8.531c0 0.391-0.203 0.781-0.531 1l-12.797 8.531c-0.203 0.125-0.438 0.203-0.672 0.203s-0.469-0.078-0.672-0.203l-12.797-8.531c-0.328-0.219-0.531-0.609-0.531-1v-8.531c0-0.391 0.203-0.781 0.531-1l12.797-8.531c0.203-0.125 0.438-0.203 0.672-0.203s0.469 0.078 0.672 0.203l12.797 8.531c0.328 0.219 0.531 0.609 0.531 1z"></path>
</symbol>
<symbol id="icon-calendar-o" viewBox="0 0 26 28">
<path d="M2 26h22v-16h-22v16zM8 7v-4.5c0-0.281-0.219-0.5-0.5-0.5h-1c-0.281 0-0.5 0.219-0.5 0.5v4.5c0 0.281 0.219 0.5 0.5 0.5h1c0.281 0 0.5-0.219 0.5-0.5zM20 7v-4.5c0-0.281-0.219-0.5-0.5-0.5h-1c-0.281 0-0.5 0.219-0.5 0.5v4.5c0 0.281 0.219 0.5 0.5 0.5h1c0.281 0 0.5-0.219 0.5-0.5zM26 6v20c0 1.094-0.906 2-2 2h-22c-1.094 0-2-0.906-2-2v-20c0-1.094 0.906-2 2-2h2v-1.5c0-1.375 1.125-2.5 2.5-2.5h1c1.375 0 2.5 1.125 2.5 2.5v1.5h6v-1.5c0-1.375 1.125-2.5 2.5-2.5h1c1.375 0 2.5 1.125 2.5 2.5v1.5h2c1.094 0 2 0.906 2 2z"></path>
</symbol>
<symbol id="icon-external-link" viewBox="0 0 28 28">
<path d="M22 14.5v5c0 2.484-2.016 4.5-4.5 4.5h-13c-2.484 0-4.5-2.016-4.5-4.5v-13c0-2.484 2.016-4.5 4.5-4.5h11c0.281 0 0.5 0.219 0.5 0.5v1c0 0.281-0.219 0.5-0.5 0.5h-11c-1.375 0-2.5 1.125-2.5 2.5v13c0 1.375 1.125 2.5 2.5 2.5h13c1.375 0 2.5-1.125 2.5-2.5v-5c0-0.281 0.219-0.5 0.5-0.5h1c0.281 0 0.5 0.219 0.5 0.5zM28 1v8c0 0.547-0.453 1-1 1-0.266 0-0.516-0.109-0.703-0.297l-2.75-2.75-10.187 10.187c-0.094 0.094-0.234 0.156-0.359 0.156s-0.266-0.063-0.359-0.156l-1.781-1.781c-0.094-0.094-0.156-0.234-0.156-0.359s0.063-0.266 0.156-0.359l10.187-10.187-2.75-2.75c-0.187-0.187-0.297-0.438-0.297-0.703 0-0.547 0.453-1 1-1h8c0.547 0 1 0.453 1 1z"></path>
</symbol>
<symbol id="icon-chevron-thin-left" viewBox="0 0 20 20">
<path d="M13.891 17.418c0.268 0.272 0.268 0.709 0 0.979s-0.701 0.271-0.969 0l-7.83-7.908c-0.268-0.27-0.268-0.707 0-0.979l7.83-7.908c0.268-0.27 0.701-0.27 0.969 0s0.268 0.709 0 0.979l-7.141 7.419 7.141 7.418z"></path>
</symbol>
<symbol id="icon-chevron-thin-right" viewBox="0 0 20 20">
<path d="M13.25 10l-7.141-7.42c-0.268-0.27-0.268-0.707 0-0.979 0.268-0.27 0.701-0.27 0.969 0l7.83 7.908c0.268 0.271 0.268 0.709 0 0.979l-7.83 7.908c-0.268 0.271-0.701 0.27-0.969 0s-0.268-0.707 0-0.979l7.141-7.417z"></path>
</symbol>
<symbol id="icon-plus" viewBox="0 0 20 20">
<path d="M16 10c0 0.553-0.048 1-0.601 1h-4.399v4.399c0 0.552-0.447 0.601-1 0.601s-1-0.049-1-0.601v-4.399h-4.399c-0.552 0-0.601-0.447-0.601-1s0.049-1 0.601-1h4.399v-4.399c0-0.553 0.447-0.601 1-0.601s1 0.048 1 0.601v4.399h4.399c0.553 0 0.601 0.447 0.601 1z"></path>
</symbol>
<symbol id="icon-play2" viewBox="0 0 32 32">
<path d="M16 0c-8.837 0-16 7.163-16 16s7.163 16 16 16 16-7.163 16-16-7.163-16-16-16zM16 29c-7.18 0-13-5.82-13-13s5.82-13 13-13 13 5.82 13 13-5.82 13-13 13zM12 9l12 7-12 7z"></path>
</symbol>
<symbol id="icon-instagram" viewBox="0 0 32 32">
<path d="M16 2.881c4.275 0 4.781 0.019 6.462 0.094 1.563 0.069 2.406 0.331 2.969 0.55 0.744 0.288 1.281 0.638 1.837 1.194 0.563 0.563 0.906 1.094 1.2 1.838 0.219 0.563 0.481 1.412 0.55 2.969 0.075 1.688 0.094 2.194 0.094 6.463s-0.019 4.781-0.094 6.463c-0.069 1.563-0.331 2.406-0.55 2.969-0.288 0.744-0.637 1.281-1.194 1.837-0.563 0.563-1.094 0.906-1.837 1.2-0.563 0.219-1.413 0.481-2.969 0.55-1.688 0.075-2.194 0.094-6.463 0.094s-4.781-0.019-6.463-0.094c-1.563-0.069-2.406-0.331-2.969-0.55-0.744-0.288-1.281-0.637-1.838-1.194-0.563-0.563-0.906-1.094-1.2-1.837-0.219-0.563-0.481-1.413-0.55-2.969-0.075-1.688-0.094-2.194-0.094-6.463s0.019-4.781 0.094-6.463c0.069-1.563 0.331-2.406 0.55-2.969 0.288-0.744 0.638-1.281 1.194-1.838 0.563-0.563 1.094-0.906 1.838-1.2 0.563-0.219 1.412-0.481 2.969-0.55 1.681-0.075 2.188-0.094 6.463-0.094zM16 0c-4.344 0-4.887 0.019-6.594 0.094-1.7 0.075-2.869 0.35-3.881 0.744-1.056 0.412-1.95 0.956-2.837 1.85-0.894 0.888-1.438 1.781-1.85 2.831-0.394 1.019-0.669 2.181-0.744 3.881-0.075 1.713-0.094 2.256-0.094 6.6s0.019 4.887 0.094 6.594c0.075 1.7 0.35 2.869 0.744 3.881 0.413 1.056 0.956 1.95 1.85 2.837 0.887 0.887 1.781 1.438 2.831 1.844 1.019 0.394 2.181 0.669 3.881 0.744 1.706 0.075 2.25 0.094 6.594 0.094s4.888-0.019 6.594-0.094c1.7-0.075 2.869-0.35 3.881-0.744 1.050-0.406 1.944-0.956 2.831-1.844s1.438-1.781 1.844-2.831c0.394-1.019 0.669-2.181 0.744-3.881 0.075-1.706 0.094-2.25 0.094-6.594s-0.019-4.887-0.094-6.594c-0.075-1.7-0.35-2.869-0.744-3.881-0.394-1.063-0.938-1.956-1.831-2.844-0.887-0.887-1.781-1.438-2.831-1.844-1.019-0.394-2.181-0.669-3.881-0.744-1.712-0.081-2.256-0.1-6.6-0.1v0z"></path>
<path d="M16 7.781c-4.537 0-8.219 3.681-8.219 8.219s3.681 8.219 8.219 8.219 8.219-3.681 8.219-8.219c0-4.537-3.681-8.219-8.219-8.219zM16 21.331c-2.944 0-5.331-2.387-5.331-5.331s2.387-5.331 5.331-5.331c2.944 0 5.331 2.387 5.331 5.331s-2.387 5.331-5.331 5.331z"></path>
<path d="M26.462 7.456c0 1.060-0.859 1.919-1.919 1.919s-1.919-0.859-1.919-1.919c0-1.060 0.859-1.919 1.919-1.919s1.919 0.859 1.919 1.919z"></path>
</symbol>
<symbol id="icon-github" viewBox="0 0 32 32">
<path d="M16 0.396c-8.84 0-16 7.164-16 16 0 7.071 4.584 13.067 10.94 15.18 0.8 0.151 1.093-0.344 1.093-0.769 0-0.38-0.013-1.387-0.020-2.72-4.451 0.965-5.389-2.147-5.389-2.147-0.728-1.847-1.78-2.34-1.78-2.34-1.449-0.992 0.112-0.972 0.112-0.972 1.607 0.112 2.451 1.648 2.451 1.648 1.427 2.447 3.745 1.74 4.66 1.331 0.144-1.035 0.556-1.74 1.013-2.14-3.553-0.4-7.288-1.776-7.288-7.907 0-1.747 0.62-3.173 1.647-4.293-0.18-0.404-0.72-2.031 0.14-4.235 0 0 1.34-0.429 4.4 1.64 1.28-0.356 2.64-0.532 4-0.54 1.36 0.008 2.72 0.184 4 0.54 3.040-2.069 4.38-1.64 4.38-1.64 0.86 2.204 0.32 3.831 0.16 4.235 1.020 1.12 1.64 2.547 1.64 4.293 0 6.147-3.74 7.5-7.3 7.893 0.56 0.48 1.080 1.461 1.080 2.96 0 2.141-0.020 3.861-0.020 4.381 0 0.42 0.28 0.92 1.1 0.76 6.401-2.099 10.981-8.099 10.981-15.159 0-8.836-7.164-16-16-16z"></path>
</symbol>
<symbol id="icon-codepen1" viewBox="0 0 32 32">
<path d="M32 10.909l-0.024-0.116-0.023-0.067c-0.013-0.032-0.024-0.067-0.040-0.1-0.004-0.024-0.020-0.045-0.027-0.067l-0.047-0.089-0.040-0.067-0.059-0.080-0.061-0.060-0.080-0.060-0.061-0.040-0.080-0.059-0.059-0.053-0.020-0.027-14.607-9.772c-0.463-0.309-1.061-0.309-1.523 0l-14.805 9.883-0.051 0.053-0.067 0.075-0.049 0.060-0.067 0.080c-0.027 0.023-0.040 0.040-0.040 0.061l-0.067 0.080-0.027 0.080c-0.027 0.013-0.027 0.053-0.040 0.093l-0.013 0.067c-0.025 0.041-0.025 0.081-0.025 0.121v9.996c0 0.059 0.004 0.12 0.013 0.18l0.013 0.061c0.007 0.040 0.013 0.080 0.027 0.115l0.020 0.067c0.013 0.036 0.021 0.071 0.036 0.1l0.029 0.067c0 0.013 0.020 0.053 0.040 0.080l0.040 0.053c0.020 0.013 0.040 0.053 0.060 0.080l0.040 0.053 0.053 0.053c0.013 0.017 0.013 0.040 0.040 0.040l0.080 0.056 0.053 0.040 0.013 0.019 14.627 9.773c0.219 0.16 0.5 0.217 0.76 0.217s0.52-0.080 0.76-0.24l14.877-9.875 0.069-0.077 0.044-0.060 0.053-0.080 0.040-0.067 0.040-0.093 0.021-0.069 0.040-0.103 0.020-0.060 0.040-0.107v-10c0-0.067 0-0.127-0.021-0.187l-0.019-0.060 0.059 0.004zM16.013 19.283l-4.867-3.253 4.867-3.256 4.867 3.253zM14.635 10.384l-5.964 3.987-4.817-3.221 10.781-7.187zM6.195 16.028l-3.443 2.307v-4.601zM8.671 17.695l5.964 3.987v6.427l-10.781-7.188 4.824-3.223zM17.387 21.681l5.965-3.973 4.817 3.227-10.783 7.187zM25.827 16.041l3.444-2.293v4.608zM23.353 14.388l-5.964-3.988v-6.44l10.78 7.187-4.816 3.22z"></path>
</symbol>
<symbol id="icon-instagram" viewBox="0 0 32 32">
<path d="M16 2.881c4.275 0 4.781 0.019 6.462 0.094 1.563 0.069 2.406 0.331 2.969 0.55 0.744 0.288 1.281 0.638 1.837 1.194 0.563 0.563 0.906 1.094 1.2 1.838 0.219 0.563 0.481 1.412 0.55 2.969 0.075 1.688 0.094 2.194 0.094 6.463s-0.019 4.781-0.094 6.463c-0.069 1.563-0.331 2.406-0.55 2.969-0.288 0.744-0.637 1.281-1.194 1.837-0.563 0.563-1.094 0.906-1.837 1.2-0.563 0.219-1.413 0.481-2.969 0.55-1.688 0.075-2.194 0.094-6.463 0.094s-4.781-0.019-6.463-0.094c-1.563-0.069-2.406-0.331-2.969-0.55-0.744-0.288-1.281-0.637-1.838-1.194-0.563-0.563-0.906-1.094-1.2-1.837-0.219-0.563-0.481-1.413-0.55-2.969-0.075-1.688-0.094-2.194-0.094-6.463s0.019-4.781 0.094-6.463c0.069-1.563 0.331-2.406 0.55-2.969 0.288-0.744 0.638-1.281 1.194-1.838 0.563-0.563 1.094-0.906 1.838-1.2 0.563-0.219 1.412-0.481 2.969-0.55 1.681-0.075 2.188-0.094 6.463-0.094zM16 0c-4.344 0-4.887 0.019-6.594 0.094-1.7 0.075-2.869 0.35-3.881 0.744-1.056 0.412-1.95 0.956-2.837 1.85-0.894 0.888-1.438 1.781-1.85 2.831-0.394 1.019-0.669 2.181-0.744 3.881-0.075 1.713-0.094 2.256-0.094 6.6s0.019 4.887 0.094 6.594c0.075 1.7 0.35 2.869 0.744 3.881 0.413 1.056 0.956 1.95 1.85 2.837 0.887 0.887 1.781 1.438 2.831 1.844 1.019 0.394 2.181 0.669 3.881 0.744 1.706 0.075 2.25 0.094 6.594 0.094s4.888-0.019 6.594-0.094c1.7-0.075 2.869-0.35 3.881-0.744 1.050-0.406 1.944-0.956 2.831-1.844s1.438-1.781 1.844-2.831c0.394-1.019 0.669-2.181 0.744-3.881 0.075-1.706 0.094-2.25 0.094-6.594s-0.019-4.887-0.094-6.594c-0.075-1.7-0.35-2.869-0.744-3.881-0.394-1.063-0.938-1.956-1.831-2.844-0.887-0.887-1.781-1.438-2.831-1.844-1.019-0.394-2.181-0.669-3.881-0.744-1.712-0.081-2.256-0.1-6.6-0.1v0z"></path>
<path d="M16 7.781c-4.537 0-8.219 3.681-8.219 8.219s3.681 8.219 8.219 8.219 8.219-3.681 8.219-8.219c0-4.537-3.681-8.219-8.219-8.219zM16 21.331c-2.944 0-5.331-2.387-5.331-5.331s2.387-5.331 5.331-5.331c2.944 0 5.331 2.387 5.331 5.331s-2.387 5.331-5.331 5.331z"></path>
<path d="M26.462 7.456c0 1.060-0.859 1.919-1.919 1.919s-1.919-0.859-1.919-1.919c0-1.060 0.859-1.919 1.919-1.919s1.919 0.859 1.919 1.919z"></path>
</symbol>
<symbol id="icon-paper-plane" viewBox="0 0 28 28">
<path d="M27.563 0.172c0.328 0.234 0.484 0.609 0.422 1l-4 24c-0.047 0.297-0.234 0.547-0.5 0.703-0.141 0.078-0.313 0.125-0.484 0.125-0.125 0-0.25-0.031-0.375-0.078l-7.078-2.891-3.781 4.609c-0.187 0.234-0.469 0.359-0.766 0.359-0.109 0-0.234-0.016-0.344-0.063-0.391-0.141-0.656-0.516-0.656-0.938v-5.453l13.5-16.547-16.703 14.453-6.172-2.531c-0.359-0.141-0.594-0.469-0.625-0.859-0.016-0.375 0.172-0.734 0.5-0.922l26-15c0.156-0.094 0.328-0.141 0.5-0.141 0.203 0 0.406 0.063 0.562 0.172z"></path>
</symbol>
</defs>
</svg>